HIERARCHY
ROOT hip
{
	OFFSET 0.000000 0.000000 0.000000 
	CHANNELS 6 Xposition Yposition Zposition Xrotation Zrotation Yrotation
	JOINT abdomen
	{
		OFFSET 0.000000 3.402643 0.000000 
		CHANNELS 3 Xrotation Zrotation Yrotation
		JOINT chest
		{
			OFFSET 0.000000 8.438565 -0.680529 
			CHANNELS 3 Xrotation Zrotation Yrotation
			JOINT neck
			{
				OFFSET 0.000000 10.207942 -0.272212 
				CHANNELS 3 Xrotation Zrotation Yrotation
				JOINT head
				{
					OFFSET 0.000000 3.130431 0.000000 
					CHANNELS 3 Xrotation Zrotation Yrotation
					End Site
					{
						OFFSET 0.000000 3.130435 0.000000 
					}
				}
			}
			JOINT lCollar
			{
				OFFSET 3.470700 6.669187 -0.816635 
				CHANNELS 3 Yrotation Zrotation Xrotation
				JOINT lShldr
				{
					OFFSET 3.198488 0.000000 0.000000 
					CHANNELS 3 Zrotation Yrotation Xrotation
					JOINT lForeArm
					{
						OFFSET 10.139888 0.000000 0.000000 
						CHANNELS 3 Yrotation Zrotation Xrotation
						JOINT lHand
						{
							OFFSET 8.370511 0.000000 0.000000 
							CHANNELS 3 Zrotation Yrotation Xrotation
							End Site
							{
								OFFSET 4.083176 0.000000 0.000000 
							}
						}
					}
				}
			}
			JOINT rCollar
			{
				OFFSET -3.470700 6.669187 -0.816635 
				CHANNELS 3 Yrotation Zrotation Xrotation
				JOINT rShldr
				{
					OFFSET -3.198488 0.000000 0.000000 
					CHANNELS 3 Zrotation Yrotation Xrotation
					JOINT rForeArm
					{
						OFFSET -10.139888 0.000000 0.000000 
						CHANNELS 3 Yrotation Zrotation Xrotation
						JOINT rHand
						{
							OFFSET -8.370511 0.000000 0.000000 
							CHANNELS 3 Zrotation Yrotation Xrotation
							End Site
							{
								OFFSET -4.083176 0.000000 0.000000 
							}
						}
					}
				}
			}
		}
	}
	JOINT lThigh
	{
		OFFSET 5.308129 -1.633274 1.361059 
		CHANNELS 3 Xrotation Zrotation Yrotation
		JOINT lShin
		{
			OFFSET -2.041588 -20.007561 0.000000 
			CHANNELS 3 Xrotation Zrotation Yrotation
			JOINT lFoot
			{
				OFFSET 0.000000 -19.190928 -1.224953 
				CHANNELS 3 Xrotation Yrotation Zrotation
				End Site
				{
					OFFSET 0.000000 -2.449906 4.627600 
				}
			}
		}
	}
	JOINT rThigh
	{
		OFFSET -5.308129 -1.633274 1.361059 
		CHANNELS 3 Xrotation Zrotation Yrotation
		JOINT rShin
		{
			OFFSET 2.041588 -20.007561 0.000000 
			CHANNELS 3 Xrotation Zrotation Yrotation
			JOINT rFoot
			{
				OFFSET 0.000000 -19.190928 -1.224953 
				CHANNELS 3 Xrotation Yrotation Zrotation
				End Site
				{
					OFFSET 0.000000 -2.449906 4.627600 
				}
			}
		}
	}
}
MOTION
Frames: 16
Frame Time: 0.011111
54.803574 48.154018 -3.455531 -15.012271 11.495733 -148.740570 32.821392 6.999223 -10.440387 -16.809965 2.780129 -3.809756 -7.524375 3.120348 9.655039 -16.442276 -9.928549 20.629919 -4.921947 -9.476123 -0.539306 -38.708782 -60.214645 40.936150 -86.533958 1.809280 31.410612 8.524705 12.647240 -53.186905 3.322233 12.489151 -0.342371 50.096714 49.607174 44.506123 87.647034 -3.555501 33.249168 -8.534408 -12.637552 44.076031 -2.777588 -4.129524 22.455050 45.010738 -4.274526 -6.684639 -21.769518 -12.719689 -8.008221 -63.195576 -4.874244 11.863212 53.434883 3.445076 7.548584 -12.078336 11.187674 5.883138 
54.831692 47.891720 -3.284523 -15.573909 11.657024 -150.448532 32.523724 7.702408 -10.764600 -16.556061 3.234872 -3.973507 -7.596185 3.289578 9.935704 -16.318663 -10.266907 21.266479 -4.921947 -9.476123 -0.539306 -34.720379 -61.685658 38.253551 -86.411766 1.551630 30.955723 8.524705 12.647240 -52.132214 3.322233 12.489151 -0.342371 49.717831 52.655228 43.691319 87.239502 -3.014675 32.760017 -8.534408 -12.637552 43.519386 -1.021425 -6.050724 23.487150 40.105404 -4.683811 -6.108202 -22.728415 -12.094113 -7.861629 -64.865067 -3.634225 11.735703 54.680092 3.317899 7.657532 -11.005630 10.343154 5.472226 
54.865425 47.631737 -3.112854 -16.099884 11.783139 -152.000610 32.241425 8.402216 -11.188166 -16.282089 3.850489 -4.163418 -7.617344 3.190848 10.263017 -16.268414 -10.351144 21.905767 -4.921947 -9.476123 -0.539306 -30.630291 -62.825871 35.540016 -86.318832 1.361928 30.468067 8.524705 12.647240 -51.097057 3.322233 12.489151 -0.342371 49.288277 55.584496 43.019241 86.922607 -2.534164 32.282276 -8.534408 -12.637552 43.206890 0.684860 -7.927485 24.070269 35.150406 -5.044271 -5.505933 -23.451359 -11.522431 -7.670431 -66.422737 -2.471376 11.679529 55.786911 3.190698 7.771915 -9.969611 9.333680 5.092157 
54.903133 47.385311 -2.942179 -16.555941 11.839477 -153.339905 32.055256 9.028023 -11.717129 -15.987847 4.558795 -4.370553 -7.637496 2.955605 10.599422 -16.260607 -10.235228 22.484297 -4.921947 -9.476123 -0.539306 -26.411608 -63.648441 32.973751 -86.243744 1.262527 29.955109 8.524705 12.647240 -50.149792 3.322233 12.489151 -0.342371 48.892391 58.341522 42.427532 86.688026 -2.122926 31.823828 -8.534408 -12.637552 43.079941 2.471797 -9.760303 24.140699 30.310678 -5.336824 -4.883072 -24.041401 -11.102434 -7.549868 -67.750381 -1.465798 11.788392 56.648769 3.100854 7.844796 -8.965934 8.271218 4.713394 
54.931580 47.186523 -2.776463 -16.901648 11.794046 -154.428131 32.005360 9.561237 -12.294703 -15.693065 5.230872 -4.581769 -7.659463 2.769618 10.860460 -16.238451 -9.986732 22.916811 -4.921947 -9.476123 -0.539306 -22.096996 -64.161362 30.723228 -86.165192 1.282021 29.395247 8.524705 12.647240 -49.319717 3.322233 12.489151 -0.342371 48.618137 60.872982 41.834423 86.521904 -1.789165 31.372660 -8.534408 -12.637552 43.060410 4.297609 -11.475608 23.748970 25.826723 -5.574509 -4.292943 -24.348682 -11.197708 -7.621525 -68.716690 -0.645595 12.089604 57.206539 3.034384 7.903664 -8.089377 7.215404 4.422532 
54.941174 47.049255 -2.620011 -17.143505 11.662165 -155.310730 32.052860 9.943663 -12.861602 -15.408253 5.717351 -4.770722 -7.704055 2.838449 11.008033 -16.170773 -9.718500 23.161539 -4.921947 -9.476123 -0.539306 -17.660860 -64.438667 29.007210 -86.052757 1.436777 28.786577 8.524705 12.647240 -48.655647 3.322233 12.489151 -0.342371 48.569542 63.126350 41.131565 86.409843 -1.551244 30.946255 -8.534408 -12.637552 43.021343 6.103370 -13.034091 22.964191 21.790766 -5.732587 -3.745919 -24.598402 -11.518751 -7.797472 -69.348579 -0.011746 12.626781 57.500740 3.004914 7.912647 -7.500301 6.376027 4.206032 
54.939514 46.933155 -2.476127 -17.295256 11.475636 -156.016418 32.153374 10.165491 -13.295824 -15.163321 5.963939 -4.907047 -7.686849 3.246422 10.992486 -16.100056 -9.497502 23.196619 -4.921947 -9.476123 -0.539306 -13.229420 -64.588921 27.954266 -85.867844 1.737262 28.127449 8.524705 12.647240 -48.216194 3.322233 12.489151 -0.342371 48.728962 65.021423 40.249470 86.332527 -1.395987 30.554209 -8.534408 -12.637552 42.894386 7.977650 -14.434927 21.801779 18.049427 -5.848776 -3.241505 -25.130381 -11.608475 -7.946078 -69.776749 0.465913 13.284282 57.598507 2.993516 7.924256 -7.156780 5.890079 4.088593 
54.929264 46.811100 -2.348120 -17.404568 11.304252 -156.619476 32.253147 10.318876 -13.607955 -14.987523 6.056180 -5.010509 -7.585400 3.702156 10.088115 -16.212116 -9.025010 23.876909 -4.921947 -9.476123 -0.539306 -9.028685 -64.560570 27.519896 -85.569374 2.187998 27.425350 8.524705 12.647240 -48.040417 3.322233 12.489151 -0.342371 48.972115 66.559410 39.306568 86.274345 -1.296841 30.188213 -8.534408 -12.637552 42.650249 9.998961 -15.718003 20.393847 14.254070 -5.946393 -2.695683 -25.834841 -11.375248 -7.915648 -70.147255 0.875773 13.995862 57.666981 3.003259 7.925251 -7.062832 5.833304 4.067949 
54.915707 46.656963 -2.238636 -17.498850 11.201164 -157.180191 32.273685 10.461003 -13.770174 -14.861071 6.043775 -5.077166 -7.360724 4.233549 9.960470 -16.282221 -8.763768 23.642633 -4.921947 -9.476123 -0.539306 -5.243585 -64.439285 27.604847 -85.129097 2.762424 26.707973 8.524705 12.647240 -48.206432 3.322233 12.489151 -0.342371 49.205620 67.772728 38.373726 86.226227 -1.263870 29.827808 -8.534408 -12.637552 42.318214 12.528246 -17.076706 19.925308 9.686559 -6.009736 -2.063302 -26.017881 -11.838828 -8.174530 -70.570213 1.277365 14.645820 57.794228 2.975426 7.940235 -7.274076 6.177295 4.130689 
54.904785 46.441963 -2.150983 -17.601156 11.174720 -157.737152 32.204094 10.687155 -13.863096 -14.763715 6.057546 -5.135040 -7.115832 4.594324 9.830268 -16.381277 -8.463367 23.400558 -4.921947 -9.476123 -0.539306 -2.083867 -64.118607 28.046604 -84.573555 3.368690 26.009171 8.524705 12.647240 -48.733780 3.322233 12.489151 -0.342371 49.299610 68.711136 37.648670 86.180748 -1.280875 29.513004 -8.534408 -12.637552 41.956890 17.928715 -19.089914 18.301317 -0.119198 -5.969227 -0.642446 -24.078884 -11.337735 -7.662543 -71.105881 1.706461 15.113941 58.077557 2.946189 7.976659 -7.912203 6.805030 4.315516 
54.876011 46.225307 -2.083506 -17.719316 11.221975 -158.276642 32.055969 10.963616 -13.884837 -14.685728 6.078006 -5.174726 -6.888881 4.802125 9.700889 -16.489750 -8.191286 23.118773 -4.921947 -9.476123 -0.539306 0.396226 -63.663448 28.699673 -83.955605 3.952566 25.372593 8.524705 12.647240 -49.632210 3.322233 12.489151 -0.342371 49.245476 69.382828 37.112774 86.136200 -1.317101 29.216681 -8.534408 -12.637552 41.605328 17.878073 -19.446793 18.721191 -0.119246 -5.969412 -0.652198 -26.409243 -11.829274 -8.203987 -71.690559 2.106249 15.368045 58.439339 2.906995 8.013957 -9.027308 7.541465 4.577095 
54.832020 46.012959 -2.037198 -17.873669 11.303458 -158.820740 31.851839 11.234536 -13.771452 -14.607634 6.065577 -5.167970 -6.778385 5.025860 9.523990 -16.503006 -8.046359 22.760878 -4.921947 -9.476123 -0.539306 2.212054 -63.199085 29.524517 -83.378410 4.429250 24.857445 8.524705 12.647240 -50.804085 3.322233 12.489151 -0.342371 49.073215 69.749130 36.675461 86.094383 -1.377047 28.996998 -8.534408 -12.637552 41.302593 17.750063 -19.756229 19.131798 -0.119285 -5.969409 -0.652199 -28.499006 -12.126424 -8.663139 -72.284164 2.451212 15.414460 58.850597 2.843459 8.041845 -10.519628 8.218186 4.905277 
54.773808 45.815159 -2.012721 -18.050728 11.405205 -159.332275 31.626068 11.438277 -13.521554 -14.539439 6.000500 -5.127211 -6.785303 5.332564 9.291039 -16.460434 -8.023245 22.351782 -4.921947 -9.476123 -0.539306 3.405179 -62.795753 30.462236 -82.921227 4.772952 24.483789 8.524705 12.647240 -52.141979 3.322233 12.489151 -0.342371 48.806129 69.801079 36.269440 86.063087 -1.421748 28.836868 -8.534408 -12.637552 41.077980 17.613564 -20.049393 19.510113 -0.120352 -5.969206 -0.642463 -30.257923 -12.306350 -8.993731 -72.840591 2.734205 15.269842 59.261311 2.809113 8.075579 -12.196032 8.769156 5.230948 
54.696404 45.662678 -2.010075 -18.240948 11.492574 -159.809738 31.411097 11.570710 -13.203789 -14.480808 5.942640 -5.067373 -6.869580 5.611561 9.044237 -16.422070 -8.050968 21.934479 -4.921947 -9.476123 -0.539306 3.943177 -62.389652 31.414080 -82.650696 4.964975 24.266956 8.524705 12.647240 -53.421272 3.322233 12.489151 -0.342371 48.504364 69.512856 35.999863 86.048729 -1.445399 28.776512 -8.534408 -12.637552 40.951031 17.460463 -20.321070 19.870144 -0.119373 -5.969408 -0.652200 -31.555372 -12.414830 -9.230567 -73.257156 2.898562 15.019878 59.603565 2.788163 8.101225 -13.809141 9.183825 5.534728 
54.608753 45.548893 -2.028598 -18.430014 11.565215 -160.213104 31.254025 11.633086 -12.833824 -14.441462 5.879805 -4.970729 -6.964577 5.938662 8.780010 -16.436741 -8.123446 21.535351 -4.921947 -9.476123 -0.539306 3.907537 -62.086582 32.440365 -82.566757 5.021832 24.208256 8.524705 12.647240 -54.466198 3.322233 12.489151 -0.342371 48.247940 68.830818 35.845169 86.055824 -1.439131 28.816227 -8.534408 -12.637552 40.951031 17.351183 -20.530342 20.152634 -0.119407 -5.969407 -0.652201 -32.365299 -12.524784 -9.415141 -73.557442 2.965906 14.708394 59.876930 2.758755 8.135921 -15.163749 9.496214 5.812678 
54.514816 45.475128 -2.067629 -18.575262 11.592202 -160.493713 31.159128 11.599491 -12.393129 -14.431637 5.773836 -4.860838 -7.031343 6.277632 8.496222 -16.595221 -8.170851 21.121052 -4.921947 -9.476123 -0.539306 3.349035 -61.867531 33.617573 -82.650681 4.965618 24.276701 8.524705 12.647240 -55.052139 3.322233 12.489151 -0.342371 48.096375 67.710602 35.783970 86.084740 -1.392311 28.946932 -8.534408 -12.637552 41.097519 17.274242 -20.699690 20.359766 -0.119432 -5.969405 -0.652201 -32.674698 -12.655854 -9.542838 -73.712387 2.936031 14.456039 60.052971 2.739269 8.148913 -16.075552 9.720796 5.993893 
